<svg width="87" height="38" viewBox="0 0 87 38" fill="none" xmlns="http://www.w3.org/2000/svg">
<path d="M22.0464 18.8239C22.0464 18.8239 22.0512 18.7929 22.0594 18.733C22.0675 18.673 22.073 18.5814 22.1009 18.4635C22.1786 18.1251 22.3184 17.8037 22.5135 17.5152C22.6531 17.3068 22.8174 17.1158 23.003 16.9461C23.2283 16.7467 23.477 16.5748 23.7437 16.4342C24.3231 16.1425 25.0584 15.9533 25.872 16.1156C26.6515 16.2645 27.4855 16.7272 28.1132 17.4627C28.4413 17.8388 28.7059 18.2647 28.8968 18.7242L28.9343 18.8124L28.9649 18.8993L29.033 19.1014C29.0664 19.2273 29.1059 19.3385 29.1331 19.4738C29.1965 19.7397 29.2397 20.0099 29.2624 20.2821C29.3557 21.386 29.1556 22.6071 28.662 23.7663C28.5939 23.9205 28.5346 24.0842 28.4659 24.2337L28.2473 24.6439C28.1193 24.9207 27.9233 25.1948 27.7497 25.4743C27.66 25.6148 27.5618 25.7498 27.4555 25.8785L27.1478 26.2785L26.8006 26.6557C26.6885 26.7863 26.5682 26.9098 26.4404 27.0255C25.4383 27.9785 24.2121 28.8009 22.813 29.3027C22.1113 29.566 21.3819 29.7506 20.6385 29.853L20.0734 29.9109C19.9788 29.9221 19.8834 29.9266 19.7881 29.9244H19.5036C19.1216 29.9473 18.7417 29.8887 18.3591 29.8664L17.7736 29.7641C17.6708 29.7445 17.5523 29.7304 17.4625 29.7055L17.1983 29.6307L16.9341 29.558C16.8414 29.5371 16.7504 29.5094 16.6618 29.4751L16.1097 29.2731C15.9231 29.2057 15.7495 29.108 15.5684 29.0279L15.2961 28.9019L15.0353 28.7524C14.8638 28.6494 14.6847 28.5584 14.5186 28.4466L14.0209 28.1025C13.9365 28.0463 13.856 27.9847 13.7799 27.9179L13.5437 27.7246L13.3067 27.5326C13.2312 27.4653 13.1604 27.3912 13.0855 27.3212C12.9411 27.177 12.7852 27.0443 12.6477 26.8935L12.2392 26.4348C11.7111 25.8001 11.2596 25.1066 10.8939 24.3684C10.5458 23.6208 10.2942 22.8329 10.145 22.0232L10.0653 21.4123L10.0545 21.3362C10.062 21.4358 10.0545 21.3362 10.0545 21.3496V21.3052L10.0483 21.128L10.0354 20.7738L10.0286 20.5966L10.0245 20.5077C10.0245 20.4814 10.0286 20.4592 10.0306 20.435L10.0511 20.1474C10.0576 19.9493 10.0767 19.7517 10.1082 19.556C10.2153 18.717 10.4447 17.8978 10.7891 17.1239C11.1255 16.332 11.5674 15.5881 12.1031 14.912C12.6403 14.2338 13.2623 13.6257 13.9542 13.1022C14.6472 12.5941 15.4096 12.1859 16.2186 11.8899L16.5284 11.7868L16.6795 11.7329C16.5862 11.7579 16.6795 11.7329 16.67 11.7329L16.7156 11.7215L16.8062 11.6986L17.5271 11.5188C17.7291 11.4891 17.9306 11.4572 18.1317 11.4231C18.2375 11.4043 18.3444 11.3921 18.4517 11.3867L18.7826 11.3585C19.6788 11.3 20.5789 11.3372 21.467 11.4696C23.2719 11.7504 25.0672 12.3452 26.7931 13.1366C27.6584 13.5266 28.5081 13.9617 29.3469 14.4237L29.6526 14.5914L29.9732 14.7746L30.6132 15.141C31.0251 15.3875 31.4343 15.6219 31.8475 15.8772C33.4958 16.8807 35.1155 17.9294 36.7181 18.9754C38.3208 20.0214 39.9139 21.0708 41.5213 22.0555C42.3213 22.5519 43.128 23.0301 43.9328 23.4962L45.1514 24.1798L45.7506 24.4984L46.0488 24.6573L46.3551 24.817C47.9539 25.6429 49.6018 26.3723 51.2897 27.0012C52.895 27.5986 54.5467 28.0662 56.2284 28.3995C57.8069 28.7092 59.4114 28.8709 61.0207 28.8824H61.5973C61.7886 28.8824 61.9793 28.8662 62.1679 28.8588L62.7357 28.8272L62.8718 28.8198L63.0284 28.8036L63.2967 28.774C63.6548 28.7309 63.9952 28.7066 64.3669 28.6359L64.9116 28.5423C65.0913 28.5113 65.2683 28.4796 65.4385 28.4338C66.7394 28.1477 68.0051 27.7232 69.2137 27.1676L69.6392 26.979C69.7753 26.9117 69.9115 26.8382 70.0443 26.7695C70.3091 26.6254 70.5753 26.4961 70.8252 26.3472L71.5536 25.8987L71.7293 25.7869L71.8975 25.6656L72.2263 25.4272C72.6702 25.1254 73.0528 24.7786 73.4307 24.4674C73.6193 24.3118 73.782 24.1347 73.9522 23.9757C74.1224 23.8168 74.2892 23.6612 74.4342 23.4942L74.8611 23.0112C74.9992 22.8629 75.1285 22.7068 75.2485 22.5438L75.5889 22.0858C75.6979 21.9463 75.7982 21.8004 75.8891 21.6487C76.0668 21.357 76.235 21.0917 76.38 20.8404C76.5084 20.584 76.6251 20.3508 76.7299 20.1406C76.781 20.0356 76.8327 19.9386 76.8743 19.8456C76.9158 19.7527 76.9457 19.6597 76.9777 19.5762L77.1371 19.1586L77.2671 18.8219C77.2671 18.8219 77.2099 18.9316 77.1003 19.1452C77.0451 19.2516 76.9777 19.3836 76.896 19.5405L76.766 19.7938C76.7163 19.8827 76.655 19.9729 76.5944 20.0713L76.1859 20.7246C76.0198 20.9536 75.8292 21.1961 75.6297 21.4655C75.5271 21.6042 75.4159 21.7364 75.2968 21.8615L74.9271 22.2737C74.7983 22.4217 74.6608 22.5621 74.5152 22.694L74.0659 23.1251C73.9134 23.2732 73.7343 23.4032 73.5641 23.5487C73.3939 23.6942 73.2196 23.8444 73.0249 23.9784C72.6368 24.2478 72.2474 24.5462 71.7994 24.7988L71.4672 25.0008L71.299 25.1025L71.1227 25.1948L70.4017 25.5727C70.1559 25.6979 69.8938 25.803 69.6337 25.9222C69.503 25.9788 69.3737 26.0421 69.2382 26.0947L68.8256 26.2475C67.6562 26.6924 66.4412 27.01 65.2023 27.1945C65.0402 27.2269 64.8782 27.2444 64.7155 27.2619L64.226 27.3191C63.9087 27.3676 63.5404 27.3737 63.1864 27.3973L62.914 27.4121L62.8017 27.4181H62.6703H62.142C61.9657 27.4181 61.788 27.4222 61.6089 27.4121L61.0704 27.3831C59.5675 27.2919 58.0767 27.0605 56.6178 26.6921C55.0493 26.3023 53.5136 25.7934 52.0243 25.1699C50.4453 24.5084 48.9055 23.7587 47.4124 22.9243L47.1265 22.7667L46.8337 22.597L46.2462 22.2602L45.1004 21.5739C44.3324 21.1024 43.561 20.6148 42.7903 20.107C41.2483 19.0967 39.6899 18.0311 38.1029 16.9501C37.3091 16.4113 36.5057 15.8695 35.6928 15.3249C34.8758 14.7861 34.05 14.2506 33.2051 13.7273C32.7891 13.4626 32.35 13.2033 31.9217 12.9406L31.2852 12.5668L30.9686 12.3728L30.6282 12.1808C29.7479 11.6777 28.8362 11.2069 27.8947 10.7785C26.019 9.91373 24.0045 9.21729 21.8647 8.88053C20.7792 8.72229 19.6795 8.68164 18.5851 8.75929L18.1712 8.79634C18.0299 8.80595 17.8892 8.82304 17.7498 8.84753L16.8824 8.99772L16.1573 9.1816L15.9224 9.24356L15.723 9.31092L15.3226 9.45101C14.2706 9.83737 13.2827 10.377 12.3917 11.052C11.5232 11.7225 10.7453 12.5005 10.0769 13.3669C9.41346 14.2233 8.87001 15.1644 8.46134 16.1648C8.04551 17.1542 7.77542 18.1976 7.65933 19.263C7.62254 19.5377 7.60252 19.8144 7.59942 20.0915L7.58649 20.5144V20.6182L7.59125 20.7071L7.60146 20.8842L7.6212 21.2378L7.63142 21.415L7.64027 21.5604L7.65524 21.6588C7.69564 21.9219 7.73558 22.1844 7.77507 22.4461C7.98383 23.4692 8.32908 24.4604 8.80175 25.3935C10.6951 29.0508 14.3613 31.4998 18.1617 31.8224C18.6348 31.8352 19.1046 31.879 19.5682 31.8352L19.9155 31.8163C20.0295 31.8125 20.1432 31.8017 20.2559 31.784L20.9367 31.6856C21.8272 31.5132 22.6925 31.2782 23.4836 30.9158C25.0883 30.2382 26.4459 29.2185 27.5345 28.0634C27.6729 27.9222 27.8034 27.7735 27.9253 27.6182C28.0485 27.466 28.1731 27.3151 28.2964 27.1649C28.4057 27.0046 28.5158 26.8456 28.6266 26.688C28.7384 26.5333 28.8418 26.3728 28.9363 26.2071C29.1208 25.8704 29.319 25.5626 29.4667 25.2022L29.6968 24.6823C29.7581 24.5159 29.8071 24.3569 29.8609 24.196C30.0931 23.5331 30.2451 22.8454 30.3136 22.1471C30.383 21.4844 30.3677 20.8157 30.268 20.1568C30.2191 19.8411 30.147 19.5293 30.0522 19.224C30.0113 19.0758 29.9453 18.9168 29.8929 18.77L29.8078 18.574L29.7588 18.4635L29.7063 18.3605C29.5734 18.0908 29.4173 17.8328 29.24 17.5893C29.0675 17.3591 28.8772 17.1424 28.6708 16.9414C27.8654 16.1486 26.8803 15.696 25.9353 15.5943C25.8244 15.5809 25.7127 15.5739 25.601 15.5734H25.522H25.5023C25.4919 15.5724 25.4814 15.5724 25.471 15.5734H25.4274L25.2606 15.5842C25.1515 15.5904 25.043 15.6039 24.9358 15.6246C24.8316 15.64 24.7285 15.6625 24.6274 15.692C24.2568 15.7962 23.9044 15.9556 23.5824 16.1648C23.3114 16.3434 23.0633 16.554 22.8437 16.7918C22.6646 16.9901 22.5101 17.2087 22.3834 17.4431C22.2101 17.7596 22.1007 18.1064 22.0614 18.4642C22.0528 18.5538 22.0487 18.6437 22.0492 18.7336C22.0492 18.7942 22.0492 18.8252 22.0492 18.8252L22.0464 18.8239Z" fill="#1A1A1A"/>
<path d="M63.1034 28.3786C63.1034 28.3786 62.9142 28.3975 62.5588 28.421C62.0526 28.4434 61.5454 28.4208 61.0433 28.3537C60.2747 28.2508 59.5244 28.042 58.8143 27.7334C58.3816 27.5488 57.968 27.3232 57.5793 27.0598C57.1495 26.776 56.7493 26.4506 56.3844 26.0886L56.1026 25.7848C56.01 25.6804 55.933 25.5781 55.8459 25.4743C55.6744 25.2532 55.5153 25.023 55.3693 24.7846C55.0593 24.2847 54.8063 23.7523 54.615 23.1971C54.2068 22.01 54.1056 20.7406 54.3208 19.5048L54.3692 19.2455L54.4271 19.0185C54.4604 18.8704 54.5108 18.7148 54.5632 18.5585C54.6676 18.2457 54.792 17.9397 54.9356 17.6425C55.2359 17.0418 55.611 16.4807 56.0522 15.9722C56.2756 15.7162 56.5158 15.475 56.7711 15.2501C57.0299 15.0286 57.3028 14.8236 57.5881 14.6365L57.793 14.4978L58.0163 14.3732L58.128 14.3099L58.1559 14.2944H58.162L58.1777 14.2863L58.241 14.2546C58.3302 14.2082 58.3935 14.1806 58.4698 14.1449C58.7776 14.0046 59.0964 13.8891 59.4229 13.7993C60.0677 13.6144 60.7409 13.5459 61.4102 13.5973C61.7335 13.6252 62.0529 13.6864 62.3634 13.7798C62.516 13.8264 62.6656 13.8822 62.8114 13.9468C62.9642 14.0152 63.1135 14.0912 63.2587 14.1745L63.4711 14.2991L63.6896 14.4338C63.8335 14.5276 63.9749 14.6246 64.1138 14.7248C64.3893 14.9228 64.653 15.1364 64.9035 15.3646C65.3958 15.8125 65.824 16.3231 66.0725 16.8336C66.6171 17.9651 66.707 19.2543 66.2686 20.2861C66.0732 20.769 65.6953 21.1449 65.2371 21.4035C64.7768 21.6585 64.2655 21.8104 63.7393 21.8487C63.2429 21.8917 62.7427 21.846 62.2626 21.714C61.8265 21.6051 61.4173 21.4099 61.0596 21.1402C60.98 21.0779 60.9047 21.0104 60.8343 20.9381C60.8023 20.9031 60.7662 20.8627 60.7389 20.8317C60.7035 20.7886 60.6709 20.7461 60.6477 20.7125C60.5423 20.563 60.4593 20.3992 60.4013 20.2262C60.29 19.9172 60.2849 19.5805 60.387 19.2684L60.406 19.2166C60.406 19.2112 60.4156 19.1937 60.4121 19.197L60.4258 19.1701C60.4428 19.1364 60.4605 19.0946 60.4775 19.069C60.5117 19.0117 60.5499 18.9568 60.5919 18.9047C60.675 18.8078 60.771 18.7224 60.8771 18.6508C61.0496 18.5343 61.2488 18.4625 61.4565 18.442C61.5881 18.4294 61.721 18.4403 61.8487 18.4743C61.9345 18.5019 61.9787 18.5194 61.9787 18.5194C61.8215 18.4211 61.6404 18.3664 61.4545 18.3612C61.2254 18.3533 60.9979 18.4022 60.7927 18.5033C60.6593 18.5676 60.5361 18.6509 60.4271 18.7505C60.3664 18.8089 60.3104 18.872 60.2596 18.9391C60.2304 18.9761 60.2154 19.0064 60.1916 19.0408L60.1752 19.0657L60.1568 19.1014L60.1262 19.1607C59.9564 19.5259 59.9131 19.9364 60.003 20.3286C60.0478 20.5533 60.1297 20.7693 60.2453 20.9677C60.2773 21.0257 60.3073 21.0708 60.3366 21.1152C60.3747 21.1725 60.4087 21.2156 60.4469 21.2661C60.5241 21.3633 60.6078 21.4554 60.6974 21.5416C61.0868 21.901 61.5455 22.1789 62.0461 22.3586C62.6019 22.5631 63.1914 22.6629 63.7843 22.6529C64.4413 22.6533 65.0904 22.511 65.6858 22.236C66.0113 22.0814 66.31 21.8768 66.5709 21.6298C66.7079 21.5008 66.8328 21.3596 66.9439 21.2082L67.027 21.0917L67.1094 20.957C67.14 20.9078 67.1543 20.8782 67.1775 20.8418L67.2061 20.7886L67.2135 20.7758L67.2278 20.7461L67.2421 20.7158C67.5667 20.0421 67.7297 19.3034 67.7187 18.5572C67.709 17.7896 67.5452 17.0315 67.2367 16.3271C66.8963 15.5566 66.3802 14.9551 65.8219 14.4102C65.5399 14.1396 65.2421 13.8855 64.9301 13.6491C64.7735 13.5315 64.613 13.4179 64.4487 13.3083L64.1996 13.1467L63.934 12.9871C63.7822 12.9008 63.5861 12.7884 63.3894 12.7015C63.195 12.6116 62.9954 12.5334 62.7916 12.4671C62.386 12.3358 61.9667 12.2502 61.5416 12.2118C60.7027 12.1402 59.8576 12.2194 59.0471 12.4455C58.6468 12.5569 58.2564 12.7002 57.8795 12.8739C57.7849 12.9184 57.6753 12.9695 57.5997 13.0086L57.537 13.0403L57.4635 13.0807L57.3274 13.1568L57.0598 13.309L56.8024 13.4767C56.1236 13.9249 55.5152 14.4695 54.9969 15.0932C53.9789 16.2934 53.3173 17.7494 53.0858 19.2994C52.9748 20.0359 52.9697 20.7842 53.0709 21.5221C53.1686 22.2198 53.3515 22.9033 53.6155 23.5575C53.8623 24.1736 54.1823 24.7585 54.5687 25.2999C54.7544 25.5559 54.9544 25.8014 55.1678 26.0354C55.2774 26.1492 55.387 26.2691 55.4939 26.3722L55.8268 26.6719C57.2743 27.9069 59.1137 28.6007 61.0249 28.6325C61.5442 28.6402 62.063 28.595 62.5731 28.4978C62.7487 28.4668 62.8788 28.4305 62.9686 28.4082L63.1048 28.3759L63.1034 28.3786Z" fill="#1A1A1A"/>
</svg>
