<svg width="87" height="38" viewBox="0 0 87 38" fill="none" xmlns="http://www.w3.org/2000/svg">
<path d="M64.9536 18.8239C64.9536 18.8239 64.9488 18.7929 64.9406 18.733C64.9325 18.673 64.927 18.5814 64.8991 18.4635C64.8214 18.1251 64.6816 17.8037 64.4865 17.5152C64.3469 17.3068 64.1826 17.1158 63.997 16.9461C63.7717 16.7467 63.523 16.5748 63.2563 16.4342C62.6769 16.1425 61.9416 15.9533 61.128 16.1156C60.3485 16.2645 59.5145 16.7272 58.8868 17.4627C58.5587 17.8388 58.2941 18.2647 58.1032 18.7242L58.0657 18.8124L58.0351 18.8993L57.967 19.1014C57.9336 19.2273 57.8941 19.3385 57.8669 19.4738C57.8035 19.7397 57.7603 20.0099 57.7376 20.2821C57.6443 21.386 57.8444 22.6071 58.338 23.7663C58.4061 23.9205 58.4654 24.0842 58.5341 24.2337L58.7527 24.6439C58.8807 24.9207 59.0767 25.1948 59.2503 25.4743C59.34 25.6148 59.4382 25.7498 59.5445 25.8785L59.8522 26.2785L60.1994 26.6557C60.3115 26.7863 60.4318 26.9098 60.5596 27.0255C61.5617 27.9785 62.7879 28.8009 64.187 29.3027C64.8887 29.566 65.6181 29.7506 66.3615 29.853L66.9266 29.9109C67.0212 29.9221 67.1166 29.9266 67.2119 29.9244H67.4964C67.8784 29.9473 68.2583 29.8887 68.6409 29.8664L69.2264 29.7641C69.3292 29.7445 69.4477 29.7304 69.5375 29.7055L69.8017 29.6307L70.0659 29.558C70.1586 29.5371 70.2496 29.5094 70.3382 29.4751L70.8903 29.2731C71.0769 29.2057 71.2505 29.108 71.4316 29.0279L71.7039 28.9019L71.9647 28.7524C72.1362 28.6494 72.3153 28.5584 72.4814 28.4466L72.9791 28.1025C73.0635 28.0463 73.144 27.9847 73.2201 27.9179L73.4563 27.7246L73.6933 27.5326C73.7688 27.4653 73.8396 27.3912 73.9145 27.3212C74.0589 27.177 74.2148 27.0443 74.3523 26.8935L74.7608 26.4348C75.2889 25.8001 75.7404 25.1066 76.1061 24.3684C76.4542 23.6208 76.7058 22.8329 76.855 22.0232L76.9347 21.4123L76.9455 21.3362C76.938 21.4358 76.9455 21.3362 76.9455 21.3496V21.3052L76.9517 21.128L76.9646 20.7738L76.9714 20.5966L76.9755 20.5077C76.9755 20.4814 76.9714 20.4592 76.9694 20.435L76.9489 20.1474C76.9424 19.9493 76.9233 19.7517 76.8918 19.556C76.7847 18.717 76.5553 17.8978 76.2109 17.1239C75.8745 16.332 75.4326 15.5881 74.8969 14.912C74.3597 14.2338 73.7377 13.6257 73.0458 13.1022C72.3528 12.5941 71.5904 12.1859 70.7814 11.8899L70.4716 11.7868L70.3205 11.7329C70.4138 11.7579 70.3205 11.7329 70.33 11.7329L70.2844 11.7215L70.1938 11.6986L69.4729 11.5188C69.2709 11.4891 69.0694 11.4572 68.8683 11.4231C68.7625 11.4043 68.6556 11.3921 68.5483 11.3867L68.2174 11.3585C67.3212 11.3 66.4211 11.3372 65.533 11.4696C63.7281 11.7504 61.9328 12.3452 60.2069 13.1366C59.3416 13.5266 58.4919 13.9617 57.6531 14.4237L57.3474 14.5914L57.0268 14.7746L56.3868 15.141C55.9749 15.3875 55.5657 15.6219 55.1525 15.8772C53.5042 16.8807 51.8845 17.9294 50.2819 18.9754C48.6792 20.0214 47.0861 21.0708 45.4787 22.0555C44.6787 22.5519 43.872 23.0301 43.0672 23.4962L41.8486 24.1798L41.2494 24.4984L40.9512 24.6573L40.6449 24.817C39.0461 25.6429 37.3982 26.3723 35.7103 27.0012C34.105 27.5986 32.4533 28.0662 30.7716 28.3995C29.1931 28.7092 27.5886 28.8709 25.9793 28.8824H25.4027C25.2114 28.8824 25.0207 28.8662 24.8321 28.8588L24.2643 28.8272L24.1282 28.8198L23.9716 28.8036L23.7033 28.774C23.3452 28.7309 23.0048 28.7066 22.6331 28.6359L22.0884 28.5423C21.9087 28.5113 21.7317 28.4796 21.5615 28.4338C20.2606 28.1477 18.9949 27.7232 17.7863 27.1676L17.3608 26.979C17.2247 26.9117 17.0885 26.8382 16.9557 26.7695C16.6909 26.6254 16.4247 26.4961 16.1748 26.3472L15.4464 25.8987L15.2707 25.7869L15.1025 25.6656L14.7737 25.4272C14.3298 25.1254 13.9472 24.7786 13.5693 24.4674C13.3807 24.3118 13.218 24.1347 13.0478 23.9757C12.8776 23.8168 12.7108 23.6612 12.5658 23.4942L12.1389 23.0112C12.0008 22.8629 11.8715 22.7068 11.7515 22.5438L11.4111 22.0858C11.3021 21.9463 11.2018 21.8004 11.1109 21.6487C10.9332 21.357 10.765 21.0917 10.62 20.8404C10.4916 20.584 10.3749 20.3508 10.2701 20.1406C10.219 20.0356 10.1673 19.9386 10.1257 19.8456C10.0842 19.7527 10.0543 19.6597 10.0223 19.5762L9.86295 19.1586L9.73291 18.8219C9.73291 18.8219 9.7901 18.9316 9.89971 19.1452C9.95486 19.2516 10.0223 19.3836 10.104 19.5405L10.234 19.7938C10.2837 19.8827 10.345 19.9729 10.4056 20.0713L10.8141 20.7246C10.9802 20.9536 11.1708 21.1961 11.3703 21.4655C11.4729 21.6042 11.5841 21.7364 11.7032 21.8615L12.0729 22.2737C12.2017 22.4217 12.3392 22.5621 12.4848 22.694L12.9341 23.1251C13.0866 23.2732 13.2657 23.4032 13.4359 23.5487C13.6061 23.6942 13.7804 23.8444 13.9751 23.9784C14.3632 24.2478 14.7526 24.5462 15.2006 24.7988L15.5328 25.0008L15.701 25.1025L15.8773 25.1948L16.5983 25.5727C16.8441 25.6979 17.1062 25.803 17.3663 25.9222C17.497 25.9788 17.6263 26.0421 17.7618 26.0947L18.1744 26.2475C19.3438 26.6924 20.5588 27.01 21.7977 27.1945C21.9598 27.2269 22.1218 27.2444 22.2845 27.2619L22.774 27.3191C23.0913 27.3676 23.4596 27.3737 23.8136 27.3973L24.086 27.4121L24.1983 27.4181H24.3297H24.858C25.0343 27.4181 25.212 27.4222 25.3911 27.4121L25.9296 27.3831C27.4325 27.2919 28.9233 27.0605 30.3822 26.6921C31.9507 26.3023 33.4864 25.7934 34.9757 25.1699C36.5547 24.5084 38.0945 23.7587 39.5876 22.9243L39.8735 22.7667L40.1663 22.597L40.7538 22.2602L41.8996 21.5739C42.6676 21.1024 43.439 20.6148 44.2097 20.107C45.7517 19.0967 47.3101 18.0311 48.8971 16.9501C49.6909 16.4113 50.4943 15.8695 51.3072 15.3249C52.1242 14.7861 52.95 14.2506 53.7949 13.7273C54.2109 13.4626 54.65 13.2033 55.0783 12.9406L55.7148 12.5668L56.0314 12.3728L56.3718 12.1808C57.2521 11.6777 58.1638 11.2069 59.1053 10.7785C60.981 9.91373 62.9955 9.21729 65.1353 8.88053C66.2208 8.72229 67.3205 8.68164 68.4149 8.75929L68.8288 8.79634C68.9701 8.80595 69.1108 8.82304 69.2502 8.84753L70.1176 8.99772L70.8427 9.1816L71.0776 9.24356L71.277 9.31092L71.6774 9.45101C72.7294 9.83737 73.7173 10.377 74.6083 11.052C75.4768 11.7225 76.2547 12.5005 76.9231 13.3669C77.5865 14.2233 78.13 15.1644 78.5387 16.1648C78.9545 17.1542 79.2246 18.1976 79.3407 19.263C79.3775 19.5377 79.3975 19.8144 79.4006 20.0915L79.4135 20.5144V20.6182L79.4088 20.7071L79.3985 20.8842L79.3788 21.2378L79.3686 21.415L79.3597 21.5604L79.3448 21.6588C79.3044 21.9219 79.2644 22.1844 79.2249 22.4461C79.0162 23.4692 78.6709 24.4604 78.1982 25.3935C76.3049 29.0508 72.6387 31.4998 68.8383 31.8224C68.3652 31.8352 67.8954 31.879 67.4318 31.8352L67.0845 31.8163C66.9705 31.8125 66.8568 31.8017 66.7441 31.784L66.0633 31.6856C65.1728 31.5132 64.3075 31.2782 63.5164 30.9158C61.9117 30.2382 60.5541 29.2185 59.4655 28.0634C59.3271 27.9222 59.1966 27.7735 59.0747 27.6182C58.9515 27.466 58.8269 27.3151 58.7036 27.1649C58.5943 27.0046 58.4842 26.8456 58.3734 26.688C58.2616 26.5333 58.1582 26.3728 58.0637 26.2071C57.8792 25.8704 57.681 25.5626 57.5333 25.2022L57.3032 24.6823C57.2419 24.5159 57.1929 24.3569 57.1391 24.196C56.9069 23.5331 56.7549 22.8454 56.6864 22.1471C56.617 21.4844 56.6323 20.8157 56.732 20.1568C56.7809 19.8411 56.853 19.5293 56.9478 19.224C56.9887 19.0758 57.0547 18.9168 57.1071 18.77L57.1922 18.574L57.2412 18.4635L57.2937 18.3605C57.4266 18.0908 57.5827 17.8328 57.76 17.5893C57.9325 17.3591 58.1228 17.1424 58.3292 16.9414C59.1346 16.1486 60.1197 15.696 61.0647 15.5943C61.1756 15.5809 61.2873 15.5739 61.399 15.5734H61.478H61.4977C61.5081 15.5724 61.5186 15.5724 61.529 15.5734H61.5726L61.7394 15.5842C61.8485 15.5904 61.957 15.6039 62.0642 15.6246C62.1684 15.64 62.2715 15.6625 62.3726 15.692C62.7432 15.7962 63.0956 15.9556 63.4176 16.1648C63.6886 16.3434 63.9367 16.554 64.1563 16.7918C64.3354 16.9901 64.4899 17.2087 64.6166 17.4431C64.7899 17.7596 64.8993 18.1064 64.9386 18.4642C64.9472 18.5538 64.9513 18.6437 64.9508 18.7336C64.9508 18.7942 64.9508 18.8252 64.9508 18.8252L64.9536 18.8239Z" fill="#1A1A1A"/>
<path d="M23.8966 28.3786C23.8966 28.3786 24.0858 28.3975 24.4412 28.421C24.9474 28.4434 25.4546 28.4208 25.9567 28.3537C26.7253 28.2508 27.4756 28.042 28.1857 27.7334C28.6184 27.5488 29.032 27.3232 29.4207 27.0598C29.8505 26.776 30.2507 26.4506 30.6156 26.0886L30.8974 25.7848C30.99 25.6804 31.067 25.5781 31.1541 25.4743C31.3256 25.2532 31.4847 25.023 31.6307 24.7846C31.9407 24.2847 32.1937 23.7523 32.385 23.1971C32.7932 22.01 32.8944 20.7406 32.6792 19.5048L32.6308 19.2455L32.5729 19.0185C32.5396 18.8704 32.4892 18.7148 32.4368 18.5585C32.3324 18.2457 32.208 17.9397 32.0644 17.6425C31.7641 17.0418 31.389 16.4807 30.9478 15.9722C30.7244 15.7162 30.4842 15.475 30.2289 15.2501C29.9701 15.0286 29.6972 14.8236 29.4119 14.6365L29.207 14.4978L28.9837 14.3732L28.872 14.3099L28.8441 14.2944H28.838L28.8223 14.2863L28.759 14.2546C28.6698 14.2082 28.6065 14.1806 28.5302 14.1449C28.2224 14.0046 27.9036 13.8891 27.5771 13.7993C26.9323 13.6144 26.2591 13.5459 25.5898 13.5973C25.2665 13.6252 24.9471 13.6864 24.6366 13.7798C24.484 13.8264 24.3344 13.8822 24.1886 13.9468C24.0358 14.0152 23.8865 14.0912 23.7413 14.1745L23.5289 14.2991L23.3104 14.4338C23.1665 14.5276 23.0251 14.6246 22.8862 14.7248C22.6107 14.9228 22.347 15.1364 22.0965 15.3646C21.6042 15.8125 21.176 16.3231 20.9275 16.8336C20.3829 17.9651 20.293 19.2543 20.7314 20.2861C20.9268 20.769 21.3047 21.1449 21.7629 21.4035C22.2232 21.6585 22.7345 21.8104 23.2607 21.8487C23.7571 21.8917 24.2573 21.846 24.7374 21.714C25.1735 21.6051 25.5827 21.4099 25.9404 21.1402C26.02 21.0779 26.0953 21.0104 26.1657 20.9381C26.1977 20.9031 26.2338 20.8627 26.2611 20.8317C26.2965 20.7886 26.3291 20.7461 26.3523 20.7125C26.4577 20.563 26.5407 20.3992 26.5987 20.2262C26.71 19.9172 26.7151 19.5805 26.613 19.2684L26.594 19.2166C26.594 19.2112 26.5844 19.1937 26.5879 19.197L26.5742 19.1701C26.5572 19.1364 26.5395 19.0946 26.5225 19.069C26.4883 19.0117 26.4501 18.9568 26.4081 18.9047C26.325 18.8078 26.229 18.7224 26.1229 18.6508C25.9504 18.5343 25.7512 18.4625 25.5435 18.442C25.4119 18.4294 25.279 18.4403 25.1513 18.4743C25.0655 18.5019 25.0213 18.5194 25.0213 18.5194C25.1785 18.4211 25.3596 18.3664 25.5455 18.3612C25.7746 18.3533 26.0021 18.4022 26.2073 18.5033C26.3407 18.5676 26.4639 18.6509 26.5729 18.7505C26.6336 18.8089 26.6896 18.872 26.7404 18.9391C26.7696 18.9761 26.7846 19.0064 26.8084 19.0408L26.8248 19.0657L26.8432 19.1014L26.8738 19.1607C27.0436 19.5259 27.0869 19.9364 26.997 20.3286C26.9522 20.5533 26.8703 20.7693 26.7547 20.9677C26.7227 21.0257 26.6927 21.0708 26.6634 21.1152C26.6253 21.1725 26.5913 21.2156 26.5531 21.2661C26.4759 21.3633 26.3922 21.4554 26.3026 21.5416C25.9132 21.901 25.4545 22.1789 24.9539 22.3586C24.3981 22.5631 23.8086 22.6629 23.2157 22.6529C22.5587 22.6533 21.9096 22.511 21.3142 22.236C20.9887 22.0814 20.69 21.8768 20.4291 21.6298C20.2921 21.5008 20.1672 21.3596 20.0561 21.2082L19.973 21.0917L19.8906 20.957C19.86 20.9078 19.8457 20.8782 19.8225 20.8418L19.7939 20.7886L19.7865 20.7758L19.7722 20.7461L19.7579 20.7158C19.4333 20.0421 19.2703 19.3034 19.2813 18.5572C19.291 17.7896 19.4548 17.0315 19.7633 16.3271C20.1037 15.5566 20.6198 14.9551 21.1781 14.4102C21.4601 14.1396 21.7579 13.8855 22.0699 13.6491C22.2265 13.5315 22.387 13.4179 22.5513 13.3083L22.8004 13.1467L23.066 12.9871C23.2178 12.9008 23.4139 12.7884 23.6106 12.7015C23.805 12.6116 24.0046 12.5334 24.2084 12.4671C24.614 12.3358 25.0333 12.2502 25.4584 12.2118C26.2973 12.1402 27.1424 12.2194 27.9529 12.4455C28.3532 12.5569 28.7436 12.7002 29.1205 12.8739C29.2151 12.9184 29.3247 12.9695 29.4003 13.0086L29.463 13.0403L29.5365 13.0807L29.6726 13.1568L29.9402 13.309L30.1976 13.4767C30.8764 13.9249 31.4848 14.4695 32.0031 15.0932C33.0211 16.2934 33.6827 17.7494 33.9142 19.2994C34.0252 20.0359 34.0303 20.7842 33.9291 21.5221C33.8314 22.2198 33.6485 22.9033 33.3845 23.5575C33.1377 24.1736 32.8177 24.7585 32.4313 25.2999C32.2456 25.5559 32.0456 25.8014 31.8322 26.0354C31.7226 26.1492 31.613 26.2691 31.5061 26.3722L31.1732 26.6719C29.7257 27.9069 27.8863 28.6007 25.9751 28.6325C25.4558 28.6402 24.937 28.595 24.4269 28.4978C24.2513 28.4668 24.1212 28.4305 24.0314 28.4082L23.8952 28.3759L23.8966 28.3786Z" fill="#1A1A1A"/>
</svg>
